<?xml version="1.0" encoding="UTF-8"?> <svg xmlns="http://www.w3.org/2000/svg" xmlns:xlink="http://www.w3.org/1999/xlink" width="500" zoomAndPan="magnify" viewBox="0 0 375 374.999991" height="500" preserveAspectRatio="xMidYMid meet" version="1.0"><defs><g></g></defs><g fill="#ffffff" fill-opacity="1"><g transform="translate(189.757913, 341.02096)"><g><path d="M -2.734375 16 C -2.816406 18.207031 -3.410156 19.875 -4.515625 21 C -5.628906 22.125 -7.179688 22.644531 -9.171875 22.5625 C -11.128906 22.488281 -12.617188 21.84375 -13.640625 20.625 C -14.671875 19.40625 -15.144531 17.703125 -15.0625 15.515625 C -14.976562 13.328125 -14.367188 11.660156 -13.234375 10.515625 C -12.109375 9.378906 -10.578125 8.847656 -8.640625 8.921875 C -6.660156 9.003906 -5.160156 9.65625 -4.140625 10.875 C -3.117188 12.101562 -2.648438 13.8125 -2.734375 16 Z M -2.734375 16 "></path></g></g></g><g fill="#ffffff" fill-opacity="1"><g transform="translate(174.533585, 340.378375)"><g></g></g></g><g fill="#ffffff" fill-opacity="1"><g transform="translate(165.328204, 340.644851)"><g><path d="M -16.578125 -4.84375 L -16.234375 20.96875 L -16.046875 21.03125 C -14.910156 16.125 -14.101562 12.863281 -13.625 11.25 L -9.53125 -2.78125 L -3.796875 -1.109375 L -12.609375 29.0625 L -21.328125 26.515625 L -21.71875 1.375 L -21.859375 1.328125 L -36.171875 22.1875 L -44.890625 19.640625 L -36.078125 -10.53125 L -30.109375 -8.796875 L -34.28125 5.5 C -34.476562 6.164062 -34.710938 6.9375 -34.984375 7.8125 C -35.253906 8.6875 -36.035156 11.003906 -37.328125 14.765625 L -37.125 14.8125 L -22.4375 -6.546875 Z M -16.578125 -4.84375 "></path></g></g></g><g fill="#ffffff" fill-opacity="1"><g transform="translate(128.677127, 329.591348)"><g><path d="M -40.265625 13.921875 L -21.125 -0.984375 C -18.71875 -2.859375 -16.753906 -4.078125 -15.234375 -4.640625 C -13.710938 -5.203125 -12.164062 -5.394531 -10.59375 -5.21875 C -9.03125 -5.050781 -7.328125 -4.46875 -5.484375 -3.46875 C -3.910156 -2.613281 -2.550781 -1.628906 -1.40625 -0.515625 L -4.125 4.515625 C -4.976562 3.453125 -6.226562 2.476562 -7.875 1.59375 C -8.914062 1.019531 -9.890625 0.800781 -10.796875 0.9375 C -11.710938 1.070312 -12.707031 1.625 -13.78125 2.59375 L -15 27.625 L -21.1875 24.265625 L -19.640625 5.171875 L -19.84375 5.078125 L -20.6875 5.828125 L -34.234375 17.1875 Z M -40.265625 13.921875 "></path></g></g></g><g fill="#ffffff" fill-opacity="1"><g transform="translate(105.609965, 317.325969)"><g><path d="M -35.078125 2.921875 C -33.828125 1.335938 -32.226562 0.472656 -30.28125 0.328125 C -28.34375 0.179688 -26.304688 0.726562 -24.171875 1.96875 L -24.09375 1.875 C -26.164062 -0.144531 -27.398438 -2.144531 -27.796875 -4.125 C -28.191406 -6.101562 -27.738281 -7.910156 -26.4375 -9.546875 C -24.632812 -11.816406 -22.289062 -12.878906 -19.40625 -12.734375 C -16.53125 -12.597656 -13.472656 -11.242188 -10.234375 -8.671875 C -6.609375 -5.796875 -4.050781 -3.050781 -2.5625 -0.4375 L -6.046875 3.953125 C -6.691406 2.609375 -7.613281 1.226562 -8.8125 -0.1875 C -10.019531 -1.601562 -11.238281 -2.800781 -12.46875 -3.78125 C -16.613281 -7.0625 -19.644531 -7.492188 -21.5625 -5.078125 C -22.414062 -3.984375 -22.410156 -2.617188 -21.546875 -0.984375 C -20.691406 0.648438 -18.957031 2.503906 -16.34375 4.578125 L -14.046875 6.40625 L -17.28125 10.484375 L -19.34375 8.84375 C -21.945312 6.78125 -24.039062 5.519531 -25.625 5.0625 C -27.207031 4.613281 -28.453125 4.960938 -29.359375 6.109375 C -30.023438 6.941406 -30.179688 7.90625 -29.828125 9 C -29.484375 10.101562 -28.566406 11.25 -27.078125 12.4375 C -24.765625 14.269531 -22 15.367188 -18.78125 15.734375 L -19.265625 21.03125 C -21.410156 20.851562 -23.441406 20.351562 -25.359375 19.53125 C -27.273438 18.71875 -29.191406 17.550781 -31.109375 16.03125 C -33.796875 13.894531 -35.492188 11.628906 -36.203125 9.234375 C -36.910156 6.847656 -36.535156 4.742188 -35.078125 2.921875 Z M -35.078125 2.921875 "></path></g></g></g><g fill="#ffffff" fill-opacity="1"><g transform="translate(85.065982, 302.184205)"><g><path d="M -23.828125 -13.3125 C -21.304688 -15.40625 -18.722656 -16.140625 -16.078125 -15.515625 C -13.429688 -14.890625 -10.742188 -12.941406 -8.015625 -9.671875 L -2.53125 -3.046875 L -26.71875 17.03125 L -30.96875 11.90625 L -21.6875 4.203125 L -23.0625 2.546875 C -25.632812 -0.554688 -26.984375 -3.492188 -27.109375 -6.265625 C -27.242188 -9.035156 -26.148438 -11.382812 -23.828125 -13.3125 Z M -10.984375 -4.671875 L -12.09375 -6.015625 C -13.5 -7.703125 -14.804688 -8.707031 -16.015625 -9.03125 C -17.222656 -9.363281 -18.390625 -9.0625 -19.515625 -8.125 C -20.640625 -7.195312 -21.128906 -6.148438 -20.984375 -4.984375 C -20.847656 -3.816406 -19.992188 -2.285156 -18.421875 -0.390625 L -17.5 0.71875 Z M -22.953125 -27.65625 L -18.703125 -22.546875 L -42.890625 -2.46875 L -47.140625 -7.578125 Z M -22.953125 -27.65625 "></path></g></g></g><g fill="#ffffff" fill-opacity="1"><g transform="translate(61.78581, 273.809111)"><g><path d="M -13.71875 -26.21875 L -10.21875 -19.515625 L -19.046875 -2.03125 L -4.921875 -9.421875 L -1.828125 -3.5 L -29.6875 11.078125 L -32.78125 5.15625 L -19.296875 -1.90625 L -38.015625 -4.8125 L -41.296875 -11.109375 L -22.609375 -7.953125 Z M -13.71875 -26.21875 "></path></g></g></g><g fill="#ffffff" fill-opacity="1"><g transform="translate(49.081067, 250.148071)"><g><path d="M -6.859375 -22.171875 L -13.34375 -17.765625 L -9.953125 -6.828125 L -2.125 -6.859375 L 0 0 L -33.453125 -1.25 L -35.859375 -9.046875 L -8.984375 -29.03125 Z M -18.21875 -14.59375 C -24.0625 -10.582031 -27.367188 -8.316406 -28.140625 -7.796875 C -28.921875 -7.273438 -29.539062 -6.882812 -30 -6.625 C -28.101562 -6.71875 -23.367188 -6.765625 -15.796875 -6.765625 Z M -18.21875 -14.59375 "></path></g></g></g><g fill="#ffffff" fill-opacity="1"><g transform="translate(41.123262, 222.866812)"><g></g></g></g><g fill="#ffffff" fill-opacity="1"><g transform="translate(38.628723, 213.743591)"><g><path d="M -6.6875 -25.140625 L -6.953125 -32.15625 L 7.921875 -32.71875 L 8.171875 -26.3125 L -0.984375 -25.96875 L -0.84375 -22.015625 L -16.328125 -10.015625 L -0.40625 -10.625 L -0.15625 -3.953125 L -31.578125 -2.765625 L -31.828125 -9.4375 L -16.609375 -10.015625 L -32.25 -20.6875 L -32.515625 -27.78125 L -17 -16.890625 Z M -1.125 -29.578125 Z M -1.125 -29.578125 "></path></g></g></g><g fill="#ffffff" fill-opacity="1"><g transform="translate(37.06776, 183.567109)"><g><path d="M -10.078125 -34.6875 C -4.941406 -33.8125 -1.210938 -31.863281 1.109375 -28.84375 C 3.441406 -25.820312 4.203125 -21.941406 3.390625 -17.203125 C 2.578125 -12.453125 0.578125 -9.039062 -2.609375 -6.96875 C -5.804688 -4.90625 -9.988281 -4.3125 -15.15625 -5.1875 C -20.300781 -6.070312 -24.019531 -8.019531 -26.3125 -11.03125 C -28.601562 -14.050781 -29.34375 -17.941406 -28.53125 -22.703125 C -27.71875 -27.453125 -25.722656 -30.851562 -22.546875 -32.90625 C -19.367188 -34.96875 -15.210938 -35.5625 -10.078125 -34.6875 Z M -13.9375 -12.0625 C -10.46875 -11.46875 -7.742188 -11.679688 -5.765625 -12.703125 C -3.785156 -13.722656 -2.570312 -15.539062 -2.125 -18.15625 C -1.226562 -23.394531 -4.269531 -26.609375 -11.25 -27.796875 C -18.226562 -28.984375 -22.164062 -26.972656 -23.0625 -21.765625 C -23.507812 -19.148438 -22.960938 -17.023438 -21.421875 -15.390625 C -19.890625 -13.765625 -17.394531 -12.65625 -13.9375 -12.0625 Z M -13.9375 -12.0625 "></path></g></g></g><g fill="#ffffff" fill-opacity="1"><g transform="translate(42.542183, 151.893406)"><g><path d="M -18.546875 -25.5 C -19.429688 -23.144531 -19.234375 -20.988281 -17.953125 -19.03125 C -16.671875 -17.082031 -14.457031 -15.515625 -11.3125 -14.328125 C -4.75 -11.859375 -0.539062 -13.085938 1.3125 -18.015625 C 2.09375 -20.078125 2.519531 -22.769531 2.59375 -26.09375 L 7.828125 -24.125 C 7.929688 -21.332031 7.421875 -18.441406 6.296875 -15.453125 C 4.679688 -11.179688 2.148438 -8.398438 -1.296875 -7.109375 C -4.753906 -5.816406 -8.910156 -6.085938 -13.765625 -7.921875 C -16.816406 -9.066406 -19.285156 -10.628906 -21.171875 -12.609375 C -23.054688 -14.597656 -24.21875 -16.863281 -24.65625 -19.40625 C -25.101562 -21.957031 -24.796875 -24.640625 -23.734375 -27.453125 C -22.660156 -30.304688 -20.894531 -32.914062 -18.4375 -35.28125 L -14.109375 -31.375 C -15.046875 -30.457031 -15.914062 -29.515625 -16.71875 -28.546875 C -17.53125 -27.585938 -18.140625 -26.570312 -18.546875 -25.5 Z M -18.546875 -25.5 "></path></g></g></g><g fill="#ffffff" fill-opacity="1"><g transform="translate(51.280794, 127.972362)"><g><path d="M -12.484375 -40.734375 L 1.734375 -21.0625 C 3.515625 -18.59375 4.660156 -16.585938 5.171875 -15.046875 C 5.679688 -13.515625 5.820312 -11.96875 5.59375 -10.40625 C 5.363281 -8.84375 4.71875 -7.160156 3.65625 -5.359375 C 2.75 -3.804688 1.71875 -2.476562 0.5625 -1.375 L -4.359375 -4.28125 C -3.273438 -5.101562 -2.253906 -6.320312 -1.296875 -7.9375 C -0.703125 -8.957031 -0.457031 -9.921875 -0.5625 -10.828125 C -0.664062 -11.742188 -1.179688 -12.757812 -2.109375 -13.875 L -27.078125 -15.96875 L -23.5 -22.046875 L -4.484375 -19.8125 L -4.375 -20 L -5.078125 -20.875 L -15.96875 -34.828125 Z M -12.484375 -40.734375 "></path></g></g></g><g fill="#ffffff" fill-opacity="1"><g transform="translate(65.268506, 105.047684)"><g></g></g></g><g fill="#ffffff" fill-opacity="1"><g transform="translate(70.685656, 97.038033)"><g><path d="M -3.65625 -22.75 L -8.34375 -36.46875 L -3.328125 -41.625 L 3.140625 -20.75 L 11.90625 -12.21875 L 7.28125 -7.46875 L -1.328125 -15.859375 L -22.515625 -21.9375 L -17.484375 -27.109375 Z M -3.65625 -22.75 "></path></g></g></g><g fill="#ffffff" fill-opacity="1"><g transform="translate(86.529791, 78.607699)"><g><path d="M 19.796875 -19.3125 L 28.015625 -24.59375 L 14.015625 -46.375 L 19.609375 -49.984375 L 36.609375 -23.53125 L 3.328125 -2.140625 L -13.671875 -28.59375 L -8.0625 -32.203125 L 5.9375 -10.421875 L 14.15625 -15.703125 L 0.15625 -37.484375 L 5.796875 -41.09375 Z M 19.796875 -19.3125 "></path></g></g></g><g fill="#ffffff" fill-opacity="1"><g transform="translate(124.665207, 55.611435)"><g><path d="M 3.671875 -1.484375 L -8.078125 -30.640625 L -1.890625 -33.125 L 9.859375 -3.96875 Z M 3.671875 -1.484375 "></path></g></g></g><g fill="#ffffff" fill-opacity="1"><g transform="translate(135.842628, 50.178283)"><g><path d="M 28.890625 -6.96875 L 22.4375 -5.40625 L 19.25 -18.609375 L 7.140625 -15.6875 L 10.328125 -2.484375 L 3.84375 -0.921875 L -3.53125 -31.484375 L 2.953125 -33.046875 L 5.84375 -21.078125 L 17.953125 -24 L 15.0625 -35.96875 L 21.515625 -37.53125 Z M 28.890625 -6.96875 "></path></g></g></g><g fill="#ffffff" fill-opacity="1"><g transform="translate(166.662061, 43.372517)"><g></g></g></g><g fill="#ffffff" fill-opacity="1"><g transform="translate(176.111662, 41.73848)"><g><path d="M 29.578125 0.71875 L 22.03125 0.53125 L 11.015625 -15.671875 L 10.625 0.265625 L 3.953125 0.09375 L 4.71875 -31.328125 L 11.390625 -31.15625 L 11.015625 -15.953125 L 22.65625 -30.890625 L 29.734375 -30.71875 L 17.921875 -15.921875 Z M 29.578125 0.71875 "></path></g></g></g><g fill="#ffffff" fill-opacity="1"><g transform="translate(202.847227, 41.915152)"><g><path d="M 29.03125 6.375 L 22.546875 4.953125 L 25.453125 -8.3125 L 13.28125 -10.984375 L 10.375 2.28125 L 3.859375 0.84375 L 10.609375 -29.859375 L 17.125 -28.421875 L 14.484375 -16.390625 L 26.65625 -13.71875 L 29.296875 -25.75 L 35.78125 -24.328125 Z M 29.03125 6.375 "></path></g></g></g><g fill="#ffffff" fill-opacity="1"><g transform="translate(232.821473, 48.095013)"><g><path d="M 36.109375 -0.96875 C 33.960938 3.769531 31.132812 6.878906 27.625 8.359375 C 24.113281 9.847656 20.164062 9.601562 15.78125 7.625 C 11.382812 5.632812 8.585938 2.835938 7.390625 -0.765625 C 6.203125 -4.378906 6.6875 -8.570312 8.84375 -13.34375 C 11 -18.113281 13.820312 -21.222656 17.3125 -22.671875 C 20.8125 -24.128906 24.765625 -23.863281 29.171875 -21.875 C 33.566406 -19.882812 36.359375 -17.09375 37.546875 -13.5 C 38.734375 -9.90625 38.253906 -5.726562 36.109375 -0.96875 Z M 15.203125 -10.421875 C 13.753906 -7.222656 13.269531 -4.539062 13.75 -2.375 C 14.226562 -0.207031 15.675781 1.421875 18.09375 2.515625 C 22.9375 4.703125 26.816406 2.578125 29.734375 -3.859375 C 32.648438 -10.316406 31.703125 -14.632812 26.890625 -16.8125 C 24.472656 -17.90625 22.28125 -17.914062 20.3125 -16.84375 C 18.34375 -15.769531 16.640625 -13.628906 15.203125 -10.421875 Z M 15.203125 -10.421875 "></path></g></g></g><g fill="#ffffff" fill-opacity="1"><g transform="translate(262.0415, 61.07804)"><g><path d="M 23.296875 17 L 17.9375 13.078125 L 33.203125 -7.84375 L 23.84375 -14.65625 L 8.578125 6.265625 L 3.1875 2.328125 L 21.71875 -23.0625 L 41.828125 -8.390625 Z M 23.296875 17 "></path></g></g></g><g fill="#ffffff" fill-opacity="1"><g transform="translate(286.319405, 78.635379)"><g><path d="M 20.203125 21.625 L 15.046875 16.09375 L 18.890625 -3.109375 L 7.25 7.765625 L 2.703125 2.890625 L 25.671875 -18.578125 L 30.21875 -13.703125 L 19.09375 -3.3125 L 37.90625 -5.46875 L 42.75 -0.296875 L 23.90625 1.65625 Z M 20.203125 21.625 "></path></g></g></g><g fill="#ffffff" fill-opacity="1"><g transform="translate(304.864338, 98.062325)"><g><path d="M 12.515625 19.53125 L 17.578125 13.59375 L 11.40625 3.9375 L 3.875 6.046875 L 0 0 L 32.578125 -7.6875 L 36.96875 -0.828125 L 16.390625 25.59375 Z M 21.4375 9.234375 C 26.007812 3.796875 28.597656 0.722656 29.203125 0.015625 C 29.816406 -0.679688 30.304688 -1.21875 30.671875 -1.59375 C 28.867188 -1 24.320312 0.304688 17.03125 2.328125 Z M 21.4375 9.234375 "></path></g></g></g><g fill="#ffffff" fill-opacity="1"><g transform="translate(320.065992, 120.973338)"><g><path d="M 10.890625 27.65625 L 8.46875 21.46875 L 21.09375 16.484375 L 16.515625 4.90625 L 3.890625 9.890625 L 1.453125 3.671875 L 30.703125 -7.859375 L 33.140625 -1.640625 L 21.6875 2.875 L 26.265625 14.453125 L 37.71875 9.9375 L 40.140625 16.125 Z M 10.890625 27.65625 "></path></g></g></g><g fill="#ffffff" fill-opacity="1"><g transform="translate(331.891965, 149.027895)"><g><path d="M 13.578125 23.6875 C 10.335938 24.175781 7.742188 23.472656 5.796875 21.578125 C 3.847656 19.679688 2.550781 16.628906 1.90625 12.421875 L 0.59375 3.90625 L 31.671875 -0.859375 L 32.6875 5.734375 L 20.765625 7.5625 L 21.09375 9.703125 C 21.707031 13.671875 21.351562 16.875 20.03125 19.3125 C 18.707031 21.757812 16.554688 23.21875 13.578125 23.6875 Z M 7.015625 9.671875 L 7.28125 11.390625 C 7.613281 13.554688 8.210938 15.085938 9.078125 15.984375 C 9.953125 16.890625 11.113281 17.234375 12.5625 17.015625 C 14 16.785156 14.957031 16.132812 15.4375 15.0625 C 15.914062 14 15.96875 12.25 15.59375 9.8125 L 15.375 8.390625 Z M 5.453125 35.515625 L 4.453125 28.953125 L 35.53125 24.1875 L 36.53125 30.75 Z M 5.453125 35.515625 "></path></g></g></g><g fill="#ffffff" fill-opacity="1"><g transform="translate(336.665401, 186.181148)"><g></g></g></g><g fill="#ffffff" fill-opacity="1"><g transform="translate(337.240609, 195.813782)"><g><path d="M 17.9375 12.921875 L 17.609375 15.53125 C 17.109375 19.601562 15.894531 22.644531 13.96875 24.65625 C 12.039062 26.664062 9.566406 27.484375 6.546875 27.109375 C 0.046875 26.304688 -2.671875 21.613281 -1.609375 13.03125 L -0.484375 3.921875 L 30.71875 7.78125 L 28.28125 27.5 L 22.8125 26.828125 L 24.4375 13.734375 Z M 4.125 11.21875 L 3.84375 13.4375 C 3.570312 15.664062 3.726562 17.34375 4.3125 18.46875 C 4.90625 19.601562 5.925781 20.257812 7.375 20.4375 C 8.8125 20.613281 9.910156 20.210938 10.671875 19.234375 C 11.441406 18.253906 11.984375 16.488281 12.296875 13.9375 L 12.515625 12.25 Z M 4.125 11.21875 "></path></g></g></g><g fill="#ffffff" fill-opacity="1"><g transform="translate(334.467898, 221.094391)"><g><path d="M -6.859375 22.171875 L 0.96875 22.203125 L 4.359375 11.265625 L -2.125 6.859375 L 0 0 L 26.890625 19.9375 L 24.484375 27.734375 L -8.984375 29.03125 Z M 6.78125 22.34375 C 13.875 22.332031 17.882812 22.332031 18.8125 22.34375 C 19.75 22.351562 20.476562 22.375 21 22.40625 C 19.375 21.414062 15.441406 18.785156 9.203125 14.515625 Z M 6.78125 22.34375 "></path></g></g></g><g fill="#ffffff" fill-opacity="1"><g transform="translate(326.403636, 247.600116)"><g><path d="M 15.4375 27.484375 C 16.59375 25.253906 16.648438 23.09375 15.609375 21 C 14.566406 18.914062 12.550781 17.101562 9.5625 15.5625 C 3.332031 12.34375 -0.988281 13.066406 -3.40625 17.734375 C -4.425781 19.691406 -5.164062 22.316406 -5.625 25.609375 L -10.578125 23.046875 C -10.359375 20.253906 -9.519531 17.445312 -8.0625 14.625 C -5.957031 10.5625 -3.113281 8.09375 0.46875 7.21875 C 4.050781 6.34375 8.144531 7.097656 12.75 9.484375 C 15.65625 10.984375 17.925781 12.820312 19.5625 15 C 21.195312 17.1875 22.082031 19.570312 22.21875 22.15625 C 22.363281 24.738281 21.75 27.363281 20.375 30.03125 C 18.96875 32.738281 16.90625 35.125 14.1875 37.1875 L 10.34375 32.8125 C 11.375 32.007812 12.347656 31.175781 13.265625 30.3125 C 14.179688 29.445312 14.90625 28.503906 15.4375 27.484375 Z M 15.4375 27.484375 "></path></g></g></g><g fill="#ffffff" fill-opacity="1"><g transform="translate(315.710783, 270.278757)"><g><path d="M -8.453125 25.953125 C -10.992188 23.890625 -12.210938 21.5 -12.109375 18.78125 C -12.015625 16.0625 -10.625 13.046875 -7.9375 9.734375 L -2.5 3.0625 L 21.875 22.90625 L 17.671875 28.078125 L 8.328125 20.46875 L 6.953125 22.140625 C 4.421875 25.265625 1.804688 27.15625 -0.890625 27.8125 C -3.585938 28.476562 -6.109375 27.859375 -8.453125 25.953125 Z M -2.46875 11.6875 L -3.5625 13.03125 C -4.957031 14.738281 -5.691406 16.21875 -5.765625 17.46875 C -5.847656 18.71875 -5.320312 19.800781 -4.1875 20.71875 C -3.0625 21.644531 -1.941406 21.925781 -0.828125 21.5625 C 0.285156 21.195312 1.625 20.0625 3.1875 18.15625 L 4.09375 17.03125 Z M -22.6875 27.859375 L -18.5 22.71875 L 5.875 42.5625 L 1.6875 47.703125 Z M -22.6875 27.859375 "></path></g></g></g><g fill="#ffffff" fill-opacity="1"><g transform="translate(292.884094, 298.688813)"><g><path d="M -20.09375 22.609375 L -25.203125 26.53125 L -34.265625 14.734375 L -29.15625 10.8125 L -23.578125 18.078125 L -18.3125 14.046875 L -10.046875 24.828125 L -0.171875 17.25 L -8.4375 6.46875 L -3.140625 2.40625 L 15.984375 27.34375 L 10.6875 31.40625 L 3.203125 21.640625 L -6.671875 29.21875 L 0.8125 38.984375 L -4.453125 43.015625 Z M -26.75 20.515625 Z M -26.75 20.515625 "></path></g></g></g><g fill="#ffffff" fill-opacity="1"><g transform="translate(266.556343, 319.600652)"><g><path d="M -19.234375 19.375 C -20.566406 16.382812 -20.578125 13.695312 -19.265625 11.3125 C -17.953125 8.9375 -15.351562 6.878906 -11.46875 5.140625 L -3.609375 1.609375 L 9.25 30.296875 L 3.15625 33.03125 L -1.78125 22.03125 L -3.75 22.90625 C -7.414062 24.550781 -10.601562 25.0625 -13.3125 24.4375 C -16.019531 23.820312 -17.992188 22.132812 -19.234375 19.375 Z M -7.46875 9.328125 L -9.046875 10.03125 C -11.046875 10.9375 -12.363281 11.925781 -13 13 C -13.632812 14.082031 -13.65625 15.289062 -13.0625 16.625 C -12.46875 17.957031 -11.59375 18.707031 -10.4375 18.875 C -9.28125 19.050781 -7.578125 18.640625 -5.328125 17.640625 L -4.015625 17.046875 Z M -32.796875 14.6875 L -26.734375 11.96875 L -13.875 40.65625 L -19.9375 43.375 Z M -32.796875 14.6875 "></path></g></g></g><g fill="#ffffff" fill-opacity="1"><g transform="translate(232.916563, 334.38336)"><g><path d="M -19.984375 29 C -20.410156 27.019531 -20.0625 25.226562 -18.9375 23.625 C -17.820312 22.03125 -16.101562 20.800781 -13.78125 19.9375 L -13.8125 19.8125 C -16.695312 20.144531 -19.023438 19.835938 -20.796875 18.890625 C -22.578125 17.941406 -23.6875 16.445312 -24.125 14.40625 C -24.738281 11.570312 -24.078125 9.082031 -22.140625 6.9375 C -20.210938 4.800781 -17.226562 3.296875 -13.1875 2.421875 C -8.675781 1.441406 -4.9375 1.207031 -1.96875 1.71875 L -0.78125 7.1875 C -2.226562 6.832031 -3.878906 6.671875 -5.734375 6.703125 C -7.585938 6.734375 -9.28125 6.914062 -10.8125 7.25 C -15.988281 8.375 -18.25 10.441406 -17.59375 13.453125 C -17.300781 14.804688 -16.242188 15.671875 -14.421875 16.046875 C -12.597656 16.421875 -10.054688 16.253906 -6.796875 15.546875 L -3.9375 14.921875 L -2.84375 20 L -5.421875 20.5625 C -8.671875 21.269531 -10.96875 22.09375 -12.3125 23.03125 C -13.664062 23.976562 -14.1875 25.160156 -13.875 26.578125 C -13.644531 27.628906 -12.992188 28.363281 -11.921875 28.78125 C -10.859375 29.207031 -9.394531 29.21875 -7.53125 28.8125 C -4.644531 28.1875 -2.039062 26.75 0.28125 24.5 L 4.0625 28.234375 C 2.5625 29.773438 0.890625 31.03125 -0.953125 32 C -2.796875 32.96875 -4.914062 33.710938 -7.3125 34.234375 C -10.664062 34.953125 -13.488281 34.828125 -15.78125 33.859375 C -18.082031 32.898438 -19.484375 31.28125 -19.984375 29 Z M -19.984375 29 "></path></g></g></g><g fill="#ffffff" fill-opacity="1"><g transform="translate(206.782581, 339.64283)"><g></g></g></g><g fill="#ffffff" fill-opacity="1"><g transform="translate(196.466206, 340.638686)"><g></g></g></g></svg> 